<?xml version="1.0" encoding="utf-8"?>
<!-- Generator: Adobe Illustrator 18.1.1, SVG Export Plug-In . SVG Version: 6.00 Build 0)  -->
<svg version="1.1" id="Layer_1" xmlns="http://www.w3.org/2000/svg" xmlns:xlink="http://www.w3.org/1999/xlink" x="0px" y="0px"
	 viewBox="156 -155 511 511" enable-background="new 156 -155 511 511" xml:space="preserve">
<path d="M654.22,67.26c-0.02-0.01-0.03-0.03-0.04-0.04L445.74-141.22c-8.88-8.89-20.7-13.78-33.26-13.78
	c-12.57,0-24.38,4.89-33.27,13.78L170.87,67.12c-0.07,0.07-0.14,0.14-0.21,0.21c-18.25,18.35-18.21,48.12,0.09,66.43
	c8.36,8.37,19.4,13.21,31.21,13.72c0.48,0.05,0.97,0.07,1.45,0.07h8.3v153.4c0,30.36,24.7,55.06,55.06,55.06h81.55
	c8.27,0,14.97-6.71,14.97-14.97V220.77c0-13.85,11.27-25.12,25.12-25.12h48.1c13.85,0,25.12,11.27,25.12,25.12v120.26
	c0,8.27,6.7,14.97,14.97,14.97h81.55c30.36,0,55.06-24.7,55.06-55.06v-153.4h7.7c12.56,0,24.37-4.89,33.27-13.79
	C672.52,115.43,672.53,85.61,654.22,67.26z M633.02,112.6c-3.23,3.23-7.53,5.01-12.09,5.01h-22.67c-8.27,0-14.97,6.7-14.97,14.97
	v168.37c0,13.85-11.27,25.11-25.12,25.11h-66.58V220.77c0-30.36-24.7-55.06-55.06-55.06h-48.1c-30.36,0-55.06,24.7-55.06,55.06
	v105.29h-66.58c-13.85,0-25.12-11.27-25.12-25.11V132.58c0-8.27-6.7-14.97-14.97-14.97H204.4c-0.23-0.02-0.46-0.03-0.7-0.03
	c-4.46-0.08-8.64-1.85-11.78-4.99c-6.67-6.67-6.67-17.52,0-24.19c0,0,0,0,0.01-0.01l0.01-0.01l208.44-208.43
	c3.23-3.23,7.52-5.01,12.09-5.01c4.57,0,8.86,1.78,12.09,5.01L632.96,88.34c0.03,0.03,0.07,0.06,0.1,0.09
	C639.69,95.11,639.67,105.94,633.02,112.6z"/>
</svg>
