<?xml version="1.0" encoding="utf-8"?>
<!-- Generator: Adobe Illustrator 18.1.1, SVG Export Plug-In . SVG Version: 6.00 Build 0)  -->
<svg version="1.1" id="Layer_1" xmlns="http://www.w3.org/2000/svg" xmlns:xlink="http://www.w3.org/1999/xlink" x="0px" y="0px"
	 viewBox="156 -156 512 512" enable-background="new 156 -156 512 512" xml:space="preserve">
<path d="M654.2,66.7c-0.01-0.01-0.02-0.02-0.04-0.04L445.3-142.19c-8.9-8.91-20.74-13.81-33.33-13.81s-24.43,4.9-33.33,13.81
	L169.9,66.55c-0.07,0.07-0.14,0.14-0.21,0.21c-18.28,18.39-18.25,48.22,0.09,66.56c8.38,8.38,19.45,13.24,31.28,13.75
	c0.48,0.05,0.96,0.07,1.45,0.07h8.32v153.7c0,30.41,24.75,55.16,55.17,55.16h81.71c8.28,0,15-6.71,15-15V220.5
	c0-13.88,11.29-25.17,25.17-25.17h48.2c13.88,0,25.17,11.29,25.17,25.17V341c0,8.29,6.71,15,15,15h81.71
	c30.42,0,55.17-24.75,55.17-55.16v-153.7h7.72c12.59,0,24.42-4.9,33.33-13.81C672.53,114.96,672.54,85.08,654.2,66.7z"/>
</svg>
