<?xml version="1.0" encoding="utf-8"?>
<!-- Generator: Adobe Illustrator 18.1.1, SVG Export Plug-In . SVG Version: 6.00 Build 0)  -->
<svg version="1.1" id="Layer_1" xmlns="http://www.w3.org/2000/svg" xmlns:xlink="http://www.w3.org/1999/xlink" x="0px" y="0px"
	 viewBox="156 -156 512 512" enable-background="new 156 -156 512 512" xml:space="preserve">
<path d="M668,100c0-141.49-114.5-256-256-256c-141.49,0-256,114.5-256,256c0,140.23,113.54,256,256,256
	C553.88,356,668,240.88,668,100z M412-126c124.62,0,226,101.38,226,226c0,45.59-13.56,89.4-38.7,126.52
	c-100.97-108.61-273.44-108.8-374.59,0C199.56,189.4,186,145.59,186,100C186-24.62,287.38-126,412-126z M243.41,250.5
	c89.77-100.7,247.42-100.67,337.17,0C490.51,351.27,333.53,351.3,243.41,250.5z"/>
<path d="M412,115c49.63,0,90-40.38,90-90V-5c0-49.63-40.38-90-90-90s-90,40.38-90,90v30C322,74.63,362.38,115,412,115z M352-5
	c0-33.09,26.91-60,60-60s60,26.91,60,60v30c0,33.09-26.91,60-60,60s-60-26.91-60-60V-5z"/>
</svg>
