<?xml version="1.0" encoding="utf-8"?>
<!-- Generator: Adobe Illustrator 18.1.1, SVG Export Plug-In . SVG Version: 6.00 Build 0)  -->
<svg version="1.1" id="Layer_1" xmlns="http://www.w3.org/2000/svg" xmlns:xlink="http://www.w3.org/1999/xlink" x="0px" y="0px"
	 viewBox="0 0 150 150" enable-background="new 0 0 150 150" xml:space="preserve">
<path fill="#4E4E50" d="M141.95,58.95c-6.07-26.06-27.83-46.87-54.13-51.78c-23.09-4.32-45.77,2.57-62.2,18.89
	C9.18,42.38,2.13,64.98,6.27,88.08c4.89,27.3,26.52,49.44,53.83,55.09c13.78,2.84,27.85,1.55,40.69-3.75
	c1.46-0.6,3.68-1.16,6.05-0.44l19.4,5.95c1.01,0.31,2.03,0.46,3.05,0.46c2.49,0,4.91-0.91,6.84-2.63c2.71-2.42,3.93-6,3.25-9.58
	l-3.96-21.05c-0.43-2.27,0.28-4.32,0.95-5.63v0C143.84,91.79,145.77,75.34,141.95,58.95z M129.15,102.84L129.15,102.84
	c-1.77,3.5-2.35,7.23-1.68,10.8l3.96,21.04c0.21,1.1-0.42,1.79-0.7,2.04c-0.27,0.25-1.01,0.81-2.11,0.46l-19.4-5.95
	c-1.52-0.47-3.1-0.7-4.7-0.7c-2.26,0-4.56,0.47-6.82,1.4c-11.33,4.68-23.76,5.82-35.96,3.3c-24.1-4.98-43.19-24.51-47.5-48.58
	c-3.66-20.44,2.57-40.43,17.09-54.85C45.85,17.4,65.91,11.32,86.34,15.14c23.19,4.33,42.37,22.68,47.72,45.66
	C137.44,75.3,135.74,89.84,129.15,102.84z"/>
</svg>
