<?xml version="1.0" encoding="utf-8"?>
<!-- Generator: Adobe Illustrator 18.1.1, SVG Export Plug-In . SVG Version: 6.00 Build 0)  -->
<svg version="1.1" id="Layer_1" xmlns="http://www.w3.org/2000/svg" xmlns:xlink="http://www.w3.org/1999/xlink" x="0px" y="0px"
	 viewBox="0 0 150 47.91" enable-background="new 0 0 150 47.91" xml:space="preserve">
<g>
	<path fill="#2D2E2D" d="M10.75,3.86c-1.88,0-3.5,1.83-4.61,3.16c-2.42,2.91-5.05,8.1-1.73,11.35C4.95,18.9,5.6,19.35,6.3,19.7
		c0.39,0.2,0.81-0.22,0.61-0.61c-0.26-0.5-0.47-1.02-0.56-1.24c-0.58-1.44-0.51-3.1-0.21-4.6c0.42-2.03,1.12-4.33,2.69-5.78
		c0.13-0.12,1.56-0.99,1.56-0.97c0,0,0,19.4,0,21.73c0,1.39-0.17,3.13-0.47,4.53c-0.17,0.78,0.73,1.33,1.35,0.84
		c1.34-1.05,2.8-2.75,2.8-5.19c0-4.5,0-19.05,0-20.74S13.5,3.86,10.75,3.86z"/>
	<path fill="#2D2E2D" d="M147.05,24.72c-0.75,0.2-1.31,0.84-1.37,1.62c-0.1,1.31-0.47,3.17-1.79,3.17c-1.76,0-2.02-4.43-2.14-5.54
		c-0.25-2.25,0.05-4.53-0.25-6.79c-0.12-0.86-0.25-2.3-1.02-2.88c-1.34-1.02-2.96,0.87-3.6,1.92c-1.18,1.93-2.48,5.33-2.48,7.62
		c0-0.95-0.21-1.94-0.28-2.9c-0.15-2.06,0.27-4.69-0.34-6.65c-0.99-3.23-4.56,0.15-5.21,1.83c-1.05,2.72-1.23,4.86-1.23,4.86V15.8
		c0-0.96-0.78-1.73-1.73-1.73h-0.39c-0.96,0-1.73,0.78-1.73,1.73v9.97c0,0-0.96,3.15-3.11,3.55s-1.71-5.35-1.71-7.23v-6.75
		c0-0.73-0.59-1.31-1.31-1.31h-0.18c-0.73,0-1.31,0.59-1.31,1.31c0-0.7-2.23-1.86-2.73-2.05c-1.7-0.66-3.61-0.11-4.89,1.14
		c-1.14,1.11-1.78,2.65-2.04,4.22c-0.27,1.66-0.08,3.34-0.11,5c-0.01,0.68,0.31,2.23,0,2.86c0,0-1.01,3.24-2.5,3.02
		c-1.49-0.22-2.23-2.59-2.23-6.05c0-2.8,1.85-5.42,1.48-8.15c-0.02-0.14-5.99,0-6.65,0c0,0,0.48-2.38-1.71-2.38
		c-2.19,0-3.29,3.21-1.23,4.22c0,0-1.85,7.84-4.91,9.73V15.17c0-0.6-0.49-1.1-1.1-1.1h-0.57c-0.6,0-1.1,0.49-1.1,1.1v0.26
		c0-0.8-1.63-1.79-2.2-2.05c-1.89-0.85-4.11-0.39-5.53,1.1c-1.08,1.13-1.64,2.68-1.85,4.23c-0.24,1.81,0.01,3.63-0.1,5.43
		c-0.05,0.81,0.2,2.04-0.09,2.8c0,0-0.79,2.19-2.63,2.19c-1.84,0-1.8-3.86-1.8-6.18v-7.89c0-0.6-0.49-1.1-1.1-1.1h-1.1
		c-0.6,0-1.1,0.49-1.1,1.1c0-0.7-2.01-1.51-2.47-1.66c-1.67-0.53-3.54-0.28-4.87,0.91c-1.07,0.96-1.66,2.37-1.88,3.79
		c-0.31,1.98-0.07,4.07-0.07,6.07c0,0-2.63,4.6-4.03,4.58c-1.4-0.02-1.49-2.04-1.49-5.94V12.45h3.51c1.28,0,2.32-1.04,2.32-2.32l0,0
		c0-0.27-0.22-0.49-0.49-0.49H53.3V6.84c0-0.31-0.06-0.63-0.18-0.92l-0.17-0.41c-0.37-0.92-1.26-1.51-2.25-1.51
		c-0.5,0-0.91,0.41-0.91,0.91v4.75h-2.54c-1.28,0-2.32,1.04-2.32,2.32l0,0c0,0.27,0.22,0.49,0.49,0.49h4.38v9.25
		c0,0-3.5,4.86-3.51,4.86c0.44-0.6-0.47-2.61-0.77-3.17c-0.74-1.41-2.01-2.34-3.24-3.3c-0.23-0.18-2.16-1.37-2.17-1.68
		c-0.02-0.82,0.73-1.08,1.32-1.37c1.24-0.61,1.58-2.46,0.5-3.35c-0.86-0.71-2.25-0.76-3.2-0.23c-0.62,0.35-1.11,0.91-1.48,1.52
		c-0.38,0.61-0.65,1.3-0.65,2.02c0,1.37,1.31,1.8,0.97,3.19c-0.39,1.62-1.65,3.22-2.63,4.55c-1.07,1.47-2.46,2.7-4.06,3.57
		c-0.01-3.28-0.02-6.55-0.02-9.83c0-2.06-0.65-5.03-3.28-5.03c-2.32,0-6.18,9.03-6.18,9.03V16.5c0-1.36-0.9-2.55-2.21-2.92
		l-0.3-0.08c-0.62-0.17-1.24,0.29-1.24,0.94c0,0,0,9.99,0,12.5c0,2.51,0.12,4.67,2.16,4.67c2.02,0,1.9-3.41,2.07-4.73
		c0.37-2.85,1.87-6.4,3.62-8.62c1.04-1.32,1.85-1.05,1.85,0.62v8.16c0,1.64,0.41,4.56,2.45,4.56c2.04,0,4.67-3.56,5.9-5.61
		c1.23-2.04,3.1-4.91,3.1-4.91c0.02-0.03,2.15,1.84,2.32,2.02c0.97,1.08,1.48,2.51,1.19,3.97c-0.17,0.84-0.61,1.67-1.72,1.78
		c-0.64,0.07-1.29-0.18-1.75-0.64c-0.92-0.9-2.07-1.37-2.69,0.24c-0.19,0.5-0.22,1.07-0.03,1.58c0.59,1.53,2.84,1.57,4.2,1.57
		c6.25,0,6.95-4.09,9.29-6.84c0,0,0,0.99,0,2.1s0.53,4.73,3.62,4.73c3.1,0,3.62-1.81,5.49-4.85c0,0,1.58,4.85,4.03,4.85
		s4.62-0.58,5.96-3.33c0,0,1.29,3.33,3.8,3.33c2.51,0,3.86-3.27,3.86-3.27s1.34,3.27,4.85,3.27c3.51,0,4.09-3.33,4.09-3.33v2.63
		c0,0.22-1.22,1.03-1.39,1.17c-2.59,2.24-5.59,4.73-6.02,8.36c-0.14,1.2,0.08,2.47,0.79,3.45c0.82,1.12,2.21,1.74,3.6,1.78
		c3.86,0.11,5.73-3.34,6-6.77c0.14-1.8-0.01-3.67-0.01-5.48c0-0.47-0.37-3.63,0-3.92c1.93-1.49,3.43-3.49,4.69-5.55
		c0.36-0.59,2.79-6.25,2.79-6.25h3.21c-0.21,0-0.6,4.42-0.63,4.87c-0.16,2.31-0.06,4.7,0.89,6.85c0.32,0.73,0.76,1.44,1.44,1.87
		c1.4,0.88,3.37,0.35,4.51-0.73c0.36-0.34,1.39-1.47,1.27-2.06c0.47,2.47,3.35,3.35,5.54,2.89c1.75-0.36,4.04-2.39,4.04-4.35
		c0,1.97,0.9,4.3,3.14,4.46c1.92,0.13,3.56-1.67,4.28-3.29v1.26c0,0.82,0.66,1.48,1.48,1.48h1.13c0.82,0,1.48-0.66,1.48-1.48v-5.53
		c0-1.73,1.32-4.45,2.4-5.74c0.34-0.41,0.96-0.8,1.36-0.44c0.23,0.21,0.24,0.56,0.23,0.86c-0.09,3.65-0.26,7.49,1.42,10.73
		c0.16,0.3,0.34,0.6,0.64,0.76c1.25,0.65,1.99-3.88,2.1-4.54c0.45-2.57,1.11-4.99,2.36-7.3c0.11-0.21,0.35-0.44,0.54-0.3
		c0.06,0.05,0.09,0.13,0.12,0.21c1.03,3.52-0.51,7.43,0.73,10.99c0.26,0.75,0.7,1.46,1.36,1.9c2.25,1.51,5.35-0.22,6.11-2.53
		C146.99,28.31,147.31,24.65,147.05,24.72z M67.98,25.25c-0.37,1.79-2.56,5.79-4.78,3.42c-0.8-0.85-0.98-2.25-1.1-3.36
		c-0.2-1.73-0.22-3.48-0.06-5.21c0.08-0.85,0.21-1.72,0.58-2.48c1.08-2.19,5.35-2.38,5.35,0.62C67.98,18.26,67.98,25.25,67.98,25.25
		z M84.28,42.51c-1.49,1.31-3.51-0.18-3.51-2.72c0-2.54,4.64-6.31,4.64-6.31s0,2.28,0,4.03C85.42,39.27,85.77,41.19,84.28,42.51z
		 M85.45,25.25c-0.37,1.79-2.56,5.79-4.78,3.42c-0.8-0.85-0.98-2.25-1.1-3.36c-0.2-1.73-0.22-3.48-0.06-5.21
		c0.08-0.85,0.21-1.72,0.58-2.48c1.08-2.19,5.35-2.38,5.35,0.62C85.45,18.26,85.45,25.25,85.45,25.25z M115.69,25.25
		c-0.37,1.79-2.56,5.79-4.78,3.42c-0.8-0.85-0.98-2.25-1.1-3.36c-0.2-1.73-0.22-3.48-0.06-5.21c0.08-0.85,0.21-1.72,0.58-2.48
		c1.08-2.19,5.35-2.38,5.35,0.62C115.69,18.26,115.69,25.25,115.69,25.25z"/>
</g>
</svg>
