<?xml version="1.0" encoding="utf-8"?>
<!-- Generator: Adobe Illustrator 18.1.1, SVG Export Plug-In . SVG Version: 6.00 Build 0)  -->
<svg version="1.1" id="Capa_1" xmlns="http://www.w3.org/2000/svg" xmlns:xlink="http://www.w3.org/1999/xlink" x="0px" y="0px"
	 viewBox="0 0 200 200" enable-background="new 0 0 200 200" xml:space="preserve">
<g>
	<g>
		<path d="M192.89,157.61l-32.92-32.92c5.99-11.97,9.98-25.94,9.98-39.9C169.95,37.91,132.04,0,85.16,0S0.37,37.91,0.37,84.79
			s37.91,84.79,84.79,84.79c13.97,0,27.93-3.99,39.9-9.98l32.92,32.92c9.98,9.98,24.94,9.98,34.91,0
			C201.87,182.54,201.87,167.58,192.89,157.61z M85.16,149.63c-35.91,0-64.84-28.93-64.84-64.84s28.93-64.84,64.84-64.84
			S150,48.88,150,84.79S121.07,149.63,85.16,149.63z"/>
	</g>
</g>
</svg>
