<?xml version="1.0" encoding="utf-8"?>
<!-- Generator: Adobe Illustrator 18.1.1, SVG Export Plug-In . SVG Version: 6.00 Build 0)  -->
<svg version="1.1" id="Layer_1" xmlns="http://www.w3.org/2000/svg" xmlns:xlink="http://www.w3.org/1999/xlink" x="0px" y="0px"
	 viewBox="0 0 150 150" enable-background="new 0 0 150 150" xml:space="preserve">
<g>
	<path fill="#FFFFFF" d="M126.8,33.48h-12.91c-5.09,0-9.95-2.43-13-6.5l-3.8-5.06c-3.2-4.26-8.29-6.81-13.61-6.81H66.52
		c-5.33,0-10.42,2.55-13.62,6.81l-3.79,5.06c-3.05,4.07-7.91,6.5-13,6.5H23.2c-10.43,0-18.91,8.48-18.91,18.91v65.03
		c0,10.43,8.48,18.91,18.91,18.91H126.8c10.43,0,18.91-8.48,18.91-18.91V52.39C145.72,41.97,137.23,33.48,126.8,33.48z
		 M134.69,117.43c0,4.35-3.54,7.89-7.89,7.89H23.2c-4.35,0-7.89-3.54-7.89-7.89V52.39c0-4.35,3.54-7.89,7.89-7.89h12.91
		c8.54,0,16.69-4.08,21.82-10.91l3.79-5.06c1.13-1.5,2.92-2.4,4.8-2.4h16.96c1.88,0,3.67,0.9,4.8,2.4l3.8,5.06
		c5.12,6.83,13.28,10.91,21.81,10.91h12.91c4.35,0,7.89,3.54,7.89,7.89V117.43z"/>
	<path fill="#FFFFFF" d="M75,46.34c-19.5,0-35.36,15.86-35.36,35.36c0,19.5,15.86,35.36,35.36,35.36s35.36-15.86,35.36-35.36
		C110.36,62.2,94.5,46.34,75,46.34z M75,106.03c-13.42,0-24.34-10.92-24.34-24.34S61.58,57.36,75,57.36S99.34,68.28,99.34,81.7
		S88.42,106.03,75,106.03z"/>
</g>
</svg>
