<?xml version="1.0" encoding="utf-8"?>
<!-- Generator: Adobe Illustrator 18.1.1, SVG Export Plug-In . SVG Version: 6.00 Build 0)  -->
<svg version="1.1" id="Layer_1" xmlns="http://www.w3.org/2000/svg" xmlns:xlink="http://www.w3.org/1999/xlink" x="0px" y="0px"
	 viewBox="0 0 150 150" enable-background="new 0 0 150 150" xml:space="preserve">
<path fill="#4E4E50" d="M125.08,3.09H23.67c-7.07,0-12.82,5.75-12.82,12.82v121.5c0,3.68,2.08,6.93,5.42,8.47
	c1.27,0.58,2.6,0.87,3.92,0.87c2.17,0,4.3-0.77,6.04-2.26l48.14-41.26l48.14,41.26c0,0,0,0,0,0c2.8,2.4,6.62,2.93,9.96,1.39
	c3.34-1.54,5.42-4.78,5.42-8.47V15.91C137.9,8.84,132.14,3.09,125.08,3.09z M130.33,137.41c0,1.02-0.72,1.45-1.02,1.6
	c-0.31,0.14-1.11,0.4-1.88-0.26v0l-50.6-43.37c-1.41-1.21-3.51-1.21-4.92,0l-50.6,43.37c-0.77,0.66-1.57,0.4-1.88,0.26
	c-0.31-0.14-1.02-0.58-1.02-1.6V15.91c0-2.9,2.36-5.26,5.26-5.26h101.41c2.9,0,5.26,2.36,5.26,5.26V137.41z"/>
</svg>
