<?xml version="1.0" encoding="utf-8"?>
<!-- Generator: Adobe Illustrator 18.1.1, SVG Export Plug-In . SVG Version: 6.00 Build 0)  -->
<svg version="1.1" id="Layer_1" xmlns="http://www.w3.org/2000/svg" xmlns:xlink="http://www.w3.org/1999/xlink" x="0px" y="0px"
	 viewBox="0 0 200 200" enable-background="new 0 0 200 200" xml:space="preserve">
<g id="Layer_1_1_">
	<path d="M200,100C200,44.73,155.27,0,100,0S0,44.73,0,100c0,54.77,44.34,100,100,100C155.43,200,200,155.04,200,100z M100,11.72
		c48.67,0,88.28,39.61,88.28,88.28c0,17.81-5.31,34.92-15.12,49.41c-39.45-42.42-106.8-42.5-146.33,0
		c-9.8-14.49-15.12-31.6-15.12-49.41C11.72,51.33,51.33,11.72,100,11.72z M34.14,158.79c35.08-39.34,96.64-39.34,131.72,0
		C130.66,198.16,69.34,198.16,34.14,158.79z"/>
	<path d="M100,105.86c19.38,0,35.16-15.78,35.16-35.16V58.98c0-19.38-15.78-35.16-35.16-35.16S64.84,39.61,64.84,58.98V70.7
		C64.84,90.08,80.63,105.86,100,105.86z M76.56,58.98c0-12.93,10.51-23.44,23.44-23.44s23.44,10.51,23.44,23.44V70.7
		c0,12.93-10.51,23.44-23.44,23.44S76.56,83.63,76.56,70.7V58.98z"/>
</g>
<g id="Layer_2">
	<path d="M104.69,96.88h-8.59c-12.89,0-23.44-10.55-23.44-23.44V55.08c0-12.89,10.55-23.44,23.44-23.44h8.59
		c12.89,0,23.44,10.55,23.44,23.44v18.36C128.13,86.33,117.58,96.88,104.69,96.88z"/>
	<polygon points="28.52,158.79 48.83,141.8 79.69,129.3 103.91,124.22 128.13,129.3 151.95,141.52 167.97,156.25 167.97,166.8 
		141.41,186.33 92.97,195.7 46.48,178.52 	"/>
</g>
</svg>
